<?xml version="1.0" encoding="utf-8"?>
<!-- Generator: Adobe Illustrator 24.0.2, SVG Export Plug-In . SVG Version: 6.00 Build 0)  -->
<svg version="1.1" id="Layer_1" xmlns="http://www.w3.org/2000/svg" xmlns:xlink="http://www.w3.org/1999/xlink" x="0px" y="0px"
	 viewBox="0 0 50 50" style="enable-background:new 0 0 50 50;" xml:space="preserve">
<style type="text/css">
	.st0{fill:none;stroke:#A877E9;stroke-width:2;}
</style>
<g>
	<path class="st0" d="M22,12.4l-2.7-4.9c-9,4.6-14.4,12.9-14.4,22.9c0,7.6,3.8,12.1,9,12.1c4.4,0,7.4-3.2,7.4-7.7
		c0-4.3-2.9-7.3-7-7.3c-0.9,0-1.8,0.2-2.6,0.6C12.2,21.2,15.9,15.9,22,12.4z"/>
	<path class="st0" d="M37.4,27.5c-0.9,0-1.8,0.2-2.6,0.6c0.5-6.9,4.2-12.2,10.3-15.7l-2.7-4.9C33.4,12.1,28,20.4,28,30.4
		c0,7.6,3.8,12.1,9,12.1c4.4,0,7.4-3.2,7.4-7.7C44.4,30.5,41.5,27.5,37.4,27.5z"/>
</g>
</svg>
